<svg xmlns="http://www.w3.org/2000/svg" viewBox="0 0 410.3 111.06" width="410.3" height="111.06"><defs/><path fill="#fff" d="M62.7 0h41.8v10.45H62.7zM41.8 41.8V0H0v10.45h31.35v41.8h41.8V41.8H41.8zM31.35 73.15h41.8V83.6h-41.8z"/><path fill="#fff" d="M115.3 52.33l1.9 2.4a7.33 7.33 0 01-5.48 2.15c-4.44 0-7.59-2.79-7.59-7.67s3-7.69 7.59-7.69a7.25 7.25 0 015.48 2.15l-1.9 2.38a4.47 4.47 0 00-3.56-1.56c-2.56 0-4.17 1.75-4.17 4.73s1.67 4.71 4.17 4.71a4.65 4.65 0 003.56-1.6zm-1.31-15.19l1.65 1.56-2.43 2.29h-3l-2.4-2.36 1.71-1.5 2.21 2.23zM122.87 53.77h7.34v2.73h-10.68V41.91h10.67v2.73h-7.33v3h6.46v2.73h-6.46zM142.95 45.83a5 5 0 00-3.77-1.46c-1.63 0-2.71.6-2.71 1.65s1.54 1.35 3.65 1.71c3.27.54 4.9 1.65 4.9 4.36 0 2.88-2.27 4.79-6.42 4.79-3.38 0-4.9-.94-6.09-2.08l1.9-2.38a5.84 5.84 0 004.38 1.6c1.52 0 2.83-.56 2.83-1.81s-.94-1.38-3-1.67c-3.73-.54-5.5-2-5.5-4.42 0-2.81 2.48-4.61 6.07-4.61a8.17 8.17 0 015.69 1.94zM151.28 52.14v4.36h-3.33V41.91h3.33v4.69l-.06 1.81.17.06.94-1.5a3.49 3.49 0 01.56-.77l4.9-4.88 2.31 2.33-4.84 4.71 5.34 6.63-2.63 2-5.1-6.39zM166.41 53.48l-1.27 3.51-3.17-.92 5.25-14.13h4.4l5.25 14.1-3.19.92-1.25-3.48zm6-14.69l-4.63 2.54-1.17-1.77 4.52-2.65zm-2.44 7.65l-.44-2h-.17l-.46 2a5.84 5.84 0 01-.17.56l-1.35 3.75h4.13l-1.39-3.76c-.04-.16-.12-.41-.16-.56zM193.39 45.83a5 5 0 00-3.77-1.46c-1.63 0-2.71.6-2.71 1.65s1.54 1.35 3.65 1.71c3.27.54 4.9 1.65 4.9 4.36 0 2.88-2.27 4.79-6.42 4.79-3.38 0-4.9-.94-6.09-2.08l1.9-2.38a5.83 5.83 0 004.38 1.6c1.52 0 2.83-.56 2.83-1.81s-.94-1.38-3-1.67c-3.73-.54-5.5-2-5.5-4.42 0-2.81 2.48-4.61 6.07-4.61a8.17 8.17 0 015.69 1.94zM201.72 56.5h-3.33V41.91h7c3.4 0 5.23 1.88 5.23 4.79s-1.77 4.84-5.11 4.84h-3.77zm3.25-7.71a2 2 0 002.21-2.09c0-1.4-.87-2.06-2.23-2.06h-3.23v4.15zM212.76 49.2c0-4.92 3.13-7.69 7.59-7.69s7.57 2.77 7.57 7.69-3.11 7.67-7.57 7.67-7.59-2.77-7.59-7.67zm11.73 0c0-3.13-1.71-4.79-4.15-4.79s-4.15 1.67-4.15 4.79 1.68 4.79 4.16 4.79 4.14-1.66 4.14-4.79zM234.39 53.5h6.21v3h-9.55V41.91h3.34zM246.19 53.77h7.34v2.73h-10.66V41.91h10.67v2.73h-7.34v3h6.46v2.73h-6.46zM267.07 52.33l1.9 2.4a7.33 7.33 0 01-5.48 2.15c-4.44 0-7.59-2.79-7.59-7.67s3-7.69 7.59-7.69a7.25 7.25 0 015.48 2.15l-1.9 2.32a4.46 4.46 0 00-3.56-1.56c-2.56 0-4.17 1.75-4.17 4.73s1.67 4.71 4.17 4.71a4.64 4.64 0 003.56-1.54zm-1.31-15.19l1.65 1.56-2.42 2.29h-3l-2.4-2.36 1.71-1.5 2.21 2.23zM281.39 50.14v-8.23h3.27V56.5h-4.42l-4.37-7.65c-.08-.17-.21-.4-.27-.56l-.87-2.21h-.19V56.5h-3.27V41.91h4.42l4.42 7.8a3.86 3.86 0 01.29.58l.81 2.13h.17zM287.8 49.2c0-4.92 3.13-7.69 7.59-7.69s7.57 2.77 7.57 7.69-3.11 7.67-7.57 7.67-7.59-2.77-7.59-7.67zm11.74 0c0-3.13-1.71-4.79-4.15-4.79s-4.15 1.67-4.15 4.79 1.71 4.77 4.15 4.77 4.15-1.64 4.15-4.77zM315.37 45.83a5 5 0 00-3.77-1.46c-1.63 0-2.71.6-2.71 1.65s1.54 1.35 3.65 1.71c3.27.54 4.9 1.65 4.9 4.36 0 2.88-2.27 4.79-6.42 4.79-3.38 0-4.9-.94-6.09-2.08l1.9-2.38a5.83 5.83 0 004.38 1.6c1.52 0 2.83-.56 2.83-1.81s-.94-1.38-3-1.67c-3.73-.54-5.5-2-5.5-4.42 0-2.81 2.48-4.61 6.06-4.61a8.17 8.17 0 015.69 1.94zM323.31 44.91h-4.23v-3h11.79v3h-4.23V56.5h-3.34zM104.13 76.15c0-4.92 3.13-7.69 7.59-7.69s7.57 2.77 7.57 7.69-3.11 7.67-7.57 7.67-7.59-2.78-7.59-7.67zm11.73 0c0-3.13-1.71-4.79-4.15-4.79s-4.15 1.67-4.15 4.79 1.71 4.77 4.15 4.77 4.16-1.65 4.16-4.77zM125.05 71.85h-4.18v-3h11.8v3h-4.23v11.59h-3.33zM134.13 76.15c0-4.92 3.13-7.69 7.59-7.69s7.57 2.77 7.57 7.69-3.11 7.67-7.57 7.67-7.59-2.78-7.59-7.67zm11.73 0c0-3.13-1.71-4.79-4.15-4.79s-4.15 1.67-4.15 4.79 1.71 4.77 4.15 4.77 4.16-1.65 4.16-4.77zM161.87 76.73l-1.13.15v.15l1.4.67a2.17 2.17 0 01.81.75l2.44 4-2.9 1.69-2.81-4.79a2 2 0 00-2-1.21h-1.9v5.31h-3.33v-14.6h7c3.4 0 5.11 1.73 5.11 4.29a3.76 3.76 0 01-2.06 3.44 1.82 1.82 0 01-.63.15zm-6.15-5.15v3.94h3.33a1.84 1.84 0 002-2 1.86 1.86 0 00-2-1.92zM171.26 83.44h-3.33V68.85h3.33zM185.08 77.08v-8.23h3.27v14.59h-4.42l-4.38-7.65c-.08-.17-.21-.4-.27-.56l-.87-2.21h-.19v10.42h-3.27V68.85h4.42l4.42 7.8a3.77 3.77 0 01.29.58l.81 2.13h.17zM191.48 76.15c0-4.92 3.13-7.69 7.59-7.69s7.57 2.77 7.57 7.69-3.11 7.67-7.57 7.67-7.59-2.78-7.59-7.67zm11.73 0c0-3.13-1.71-4.79-4.15-4.79s-4.15 1.67-4.15 4.79 1.71 4.77 4.15 4.77 4.16-1.65 4.16-4.77zM213.12 80.44h6.21v3h-9.55V68.85h3.34zM225.11 80.42l-1.24 3.48-3.2-.91 5.25-14.13h4.4l5.25 14.13-3.19.92-1.25-3.48zm3.54-7l-.44-2h-.17l-.46 2a5.56 5.56 0 01-.17.56l-1.36 3.75h4.13l-1.37-3.75c-.03-.21-.12-.46-.16-.61zM247.22 76.73l-1.12.15v.15l1.4.67a2.17 2.17 0 01.81.75l2.44 4-2.9 1.69-2.81-4.79a2 2 0 00-2-1.21h-1.9v5.31h-3.33v-14.6h7c3.4 0 5.11 1.73 5.11 4.29a3.76 3.76 0 01-2.06 3.44 1.81 1.81 0 01-.64.15zm-6.15-5.15v3.94h3.34a1.84 1.84 0 002-2 1.86 1.86 0 00-2-1.92zM260.13 83.44h-3.31v-5.15l-5.32-8.17 2.73-1.85 3.42 5.4a3.94 3.94 0 01.27.52l.48 1.21h.17l.5-1.21a2.4 2.4 0 01.25-.52l3.42-5.4 2.73 1.85-5.34 8.17zM277.81 77.08v-8.23h3.27v14.59h-4.42l-4.38-7.65c-.08-.17-.21-.4-.27-.56l-.87-2.21h-.19v10.42h-3.27V68.85h4.42l4.42 7.8a3.85 3.85 0 01.29.58l.81 2.13h.25zM294.24 76.33h3.15v5.5a7.76 7.76 0 01-5.59 2c-4.44 0-7.59-2.79-7.59-7.67s3.06-7.69 7.65-7.69a7.2 7.2 0 015.46 2.14l-1.87 2.38a4.41 4.41 0 00-3.58-1.6c-2.56 0-4.23 1.77-4.23 4.75s1.67 4.75 4.17 4.75a4.06 4.06 0 002.42-.73zM300.05 76.15c0-4.92 3.13-7.69 7.59-7.69s7.57 2.77 7.57 7.69-3.11 7.67-7.57 7.67-7.59-2.78-7.59-7.67zm11.74 0c0-3.13-1.71-4.79-4.15-4.79s-4.15 1.67-4.15 4.79 1.71 4.77 4.15 4.77 4.15-1.65 4.15-4.77zM321.69 80.44h6.18v3h-9.54V68.85h3.33zM329.44 76.15c0-4.92 3.13-7.69 7.59-7.69s7.57 2.77 7.57 7.69-3.11 7.67-7.57 7.67-7.59-2.78-7.59-7.67zm11.74 0c0-3.13-1.71-4.79-4.15-4.79s-4.16 1.63-4.16 4.79 1.71 4.77 4.15 4.77 4.16-1.65 4.16-4.77zM357.17 76.33h3.15v5.5a7.76 7.76 0 01-5.59 2c-4.44 0-7.59-2.79-7.59-7.67s3.06-7.69 7.65-7.69a7.2 7.2 0 015.46 2.14l-1.87 2.38a4.41 4.41 0 00-3.56-1.56c-2.56 0-4.23 1.77-4.23 4.75s1.67 4.75 4.17 4.75a4.06 4.06 0 002.42-.73zM367.1 83.44h-3.33V68.85h3.33zM374.16 80.71h7.34v2.73h-10.63V68.85h10.67v2.73h-7.34v3h6.46v2.73h-6.46zM107.32 107.36l-1.27 3.48-3.17-.92 5.25-14.13h4.4l5.25 14.13-3.19.92-1.25-3.48zm3.54-7l-.44-2h-.17l-.46 2a5.84 5.84 0 01-.17.56l-1.35 3.75h4.13l-1.38-3.75c-.04-.21-.15-.46-.15-.61zM135.37 106.21l1.9 2.4a7.32 7.32 0 01-5.48 2.15c-4.44 0-7.59-2.79-7.59-7.67s3-7.69 7.59-7.69a7.25 7.25 0 015.48 2.15l-1.9 2.38a4.47 4.47 0 00-3.56-1.56c-2.56 0-4.17 1.75-4.17 4.73s1.67 4.71 4.17 4.71a4.65 4.65 0 003.56-1.6zM142.94 104.31v6.07h-3.33V95.79h3.33v5.56h6.34v-5.56h3.33v14.59h-3.34v-6.07zM159.72 110.38h-3.33V95.79h3.33zM172.92 103.67l-1.13.15v.14l1.4.67a2.17 2.17 0 01.81.75l2.44 4-2.9 1.69-2.81-4.79a2 2 0 00-2-1.21h-1.9v5.32h-3.33v-14.6h7c3.4 0 5.11 1.73 5.11 4.29a3.74 3.74 0 01-2.06 3.44 1.8 1.8 0 01-.63.15zm-6.15-5.15v3.94h3.33a1.84 1.84 0 002-2 1.86 1.86 0 00-2-1.92zM178.62 105.25v-9.46h3.33v9.46c0 1.75 1.4 2.59 3.23 2.59s3.23-.84 3.23-2.59v-9.46h3.33v9.46c0 4.11-3.27 5.5-6.59 5.5s-6.53-1.39-6.53-5.5zM204.87 103.67l-1.13.15v.14l1.4.67a2.17 2.17 0 01.81.75l2.44 4-2.9 1.69-2.81-4.79a2 2 0 00-2-1.21h-1.9v5.32h-3.33v-14.6h7c3.4 0 5.11 1.73 5.11 4.29a3.74 3.74 0 01-2.06 3.44 1.81 1.81 0 01-.63.15zm-6.15-5.15v3.94h3.33a1.84 1.84 0 002-2 1.86 1.86 0 00-2-1.92zM220.02 103.27h3.15v5.5a7.76 7.76 0 01-5.59 2c-4.44 0-7.59-2.79-7.59-7.67s3.06-7.69 7.65-7.69a7.2 7.2 0 015.46 2.15l-1.88 2.36a4.41 4.41 0 00-3.56-1.56c-2.56 0-4.23 1.77-4.23 4.75s1.67 4.75 4.17 4.75a4.06 4.06 0 002.42-.73zM229.95 110.38h-3.33V95.79h3.33zM237.01 107.65h7.34v2.73h-10.68V95.79h10.67v2.73H237v3h6.46v2.73H237zM255.87 104.31v6.07h-3.34V95.79h3.34v5.56h6.34v-5.56h3.34v14.59h-3.34v-6.07zM272.61 107.38h6.26v3h-9.54V95.79h3.33zM284.6 107.36l-1.27 3.48-3.17-.92 5.25-14.13h4.4l5.25 14.13-3.19.92-1.25-3.48zm3.54-7l-.44-2h-.17l-.46 2a5.56 5.56 0 01-.17.56l-1.36 3.75h4.13l-1.37-3.75c-.03-.21-.11-.46-.15-.61zM306.29 95.33l3.19.92-5.27 14.13h-4.4l-5.23-14.13 3.19-.92 3.61 10a2.76 2.76 0 01.17.56l.38 1.77h.17l.42-1.77c0-.15.08-.4.15-.56zM319.34 110.38h-3.31v-5.15l-5.32-8.17 2.73-1.86 3.42 5.4a4.1 4.1 0 01.27.52l.48 1.21h.17l.5-1.21a2.46 2.46 0 01.25-.52l3.42-5.4 2.73 1.86-5.34 8.17zM334.48 107.36l-1.27 3.48-3.17-.92 5.25-14.13h4.4l5.25 14.13-3.19.92-1.25-3.48zm3.54-7l-.44-2h-.17l-.46 2a5.56 5.56 0 01-.17.56l-1.36 3.75h4.13l-1.37-3.75c-.04-.21-.12-.46-.16-.61zM355.24 105.99v4.36h-3.37V95.79h3.33v4.69l-.06 1.81.17.06.94-1.5a3.45 3.45 0 01.56-.77l4.9-4.88 2.31 2.34-4.83 4.71 5.34 6.63-2.63 2-5.03-6.4zM376.47 103.67l-1.12.15v.14l1.4.67a2.17 2.17 0 01.81.75l2.44 4-2.9 1.69-2.81-4.79a2 2 0 00-2-1.21h-1.9v5.32h-3.33v-14.6h7c3.4 0 5.11 1.73 5.11 4.29a3.75 3.75 0 01-2.06 3.44 1.81 1.81 0 01-.64.15zm-6.15-5.15v3.94h3.34a1.84 1.84 0 002-2 1.86 1.86 0 00-2-1.92zM385.78 105.99v4.36h-3.33V95.79h3.33v4.69l-.06 1.81.17.06.94-1.5a3.45 3.45 0 01.56-.77l4.9-4.88 2.31 2.34-4.83 4.71 5.34 6.63-2.63 2-5.06-6.42zM397.16 105.25v-9.46h3.34v9.46c0 1.75 1.4 2.59 3.23 2.59s3.23-.84 3.23-2.59v-9.46h3.34v9.46c0 4.11-3.27 5.5-6.59 5.5s-6.55-1.39-6.55-5.5z"/></svg>